<svg xmlns="http://www.w3.org/2000/svg" xmlns:v="https://vecta.io/nano" width="366.667" height="244" viewBox="0 0 275 183" preserveAspectRatio="xMidYMid meet"><path d="M58.9 56.3c-10.4 3-19 10.4-23.8 20.6-2.2 4.7-2.6 7-2.6 14.6 0 7.8.4 9.8 2.9 15.2 3.5 7.6 10.4 14.4 18.4 18.1 4.9 2.3 7 2.7 14.8 2.7 8.5 0 9.6-.3 16-3.5l6.9-3.5 6.9 3.5c6.4 3.3 7.5 3.5 16.1 3.5s9.7-.2 16.1-3.5l6.9-3.5 6.9 3.5c6.4 3.3 7.5 3.5 16.1 3.5s9.7-.2 16.1-3.5l6.9-3.5 6.9 3.5c6.4 3.2 7.6 3.5 16 3.5 7.8 0 9.9-.4 14.8-2.7 8-3.7 14.9-10.5 18.4-18.1 2.5-5.4 2.9-7.4 2.9-15.2 0-8.2-.3-9.7-3.2-15.6-3.9-7.9-10.2-14-18.1-17.7-4.8-2.3-7.1-2.7-14.8-2.7-8.5 0-9.6.3-16 3.5l-6.9 3.5-6.9-3.5c-6.4-3.3-7.5-3.5-16.1-3.5s-9.7.2-16.1 3.5l-6.9 3.5-6.9-3.5c-6.4-3.3-7.5-3.5-16.1-3.5s-9.7.2-16.1 3.5l-6.9 3.5-6.5-3.3c-7.7-3.9-18.3-5.1-26.1-2.9zm19.8 7.9c1.5.7 3.8 1.8 4.9 2.6l2.2 1.3-3.7 7.1c-3.4 6.6-3.6 7.6-3.6 16.3s.2 9.7 3.6 16.4l3.7 7.1-3.3 2c-11.6 7.2-28.9 3.3-37.5-8.3-3.3-4.5-6-12.2-6-17.2 0-8.6 5.5-18.8 13-24s19-6.6 26.7-3.3zm43-.9c2.8.8 6.3 2.1 7.6 3l2.5 1.6-3.6 7.2c-3.5 6.7-3.7 7.7-3.7 16.4s.2 9.7 3.7 16.4l3.6 7.2-2.5 1.6c-2.6 1.8-11.4 4.3-14.8 4.3s-12.2-2.5-14.8-4.3l-2.5-1.6 3.6-7.2c3.5-6.7 3.7-7.7 3.7-16.4s-.2-9.7-3.7-16.4l-3.6-7.2 2.5-1.6c2.8-1.9 10.5-4.1 14.3-4.2 1.4-.1 4.9.5 7.7 1.2zm46 0c2.8.8 6.3 2.1 7.6 3l2.5 1.6-3.6 7.2c-3.5 6.7-3.7 7.7-3.7 16.4s.2 9.7 3.7 16.4l3.6 7.2-2.5 1.6c-2.6 1.8-11.4 4.3-14.8 4.3s-12.2-2.5-14.8-4.3l-2.5-1.6 3.6-7.2c3.5-6.7 3.7-7.7 3.7-16.4s-.2-9.7-3.6-16.4l-3.7-7.1 3.2-2c6.2-3.8 13.5-4.7 21.3-2.7zm50.9 1.6c5.4 2.5 12.1 9.1 14.5 14.7 7.6 17.1-2.5 36.6-20.9 40.5-6.5 1.3-14.6.1-19.7-3.1l-3.3-2 3.7-7.1c3.4-6.7 3.6-7.7 3.6-16.4s-.2-9.7-3.6-16.3l-3.7-7.1 2.2-1.4c2.2-1.4 6.8-3.3 10.1-4.1 3.5-.8 12.7.4 17.1 2.3zM93.7 68.8c.2 1.8-.2 2.2-2.2 2.2s-2.5-.5-2.5-2.5.4-2.4 2.2-2.2a2.97 2.97 0 0 1 2.5 2.5zm45.9-.1c.3 1.5-.3 2.2-2.1 2.5-2.2.5-2.5.2-2.5-2.3 0-2.4.4-2.8 2.2-2.6 1.2.2 2.3 1.2 2.4 2.4zm46.4-.1c0 1.9-.5 2.4-2.5 2.4-1.8 0-2.5-.5-2.5-1.8 0-2.3.4-2.7 3-2.9 1.5-.1 2 .4 2 2.3zM95.7 80.8c2.7 6.9 2.3 16.6-.8 22.7-1.3 2.7-2.8 4.8-3.4 4.8-1.7 0-4.4-5.7-5.6-11.5-1.3-6.4 0-14.4 3.2-19.7 2.4-4 3.9-3.2 6.6 3.7zm46 0c2.7 6.9 2.3 16.6-.8 22.7-1.3 2.7-2.8 4.8-3.4 4.8-1.7 0-4.4-5.7-5.6-11.5-1.3-6.4 0-14.4 3.2-19.7 2.4-4 3.9-3.2 6.6 3.7zm46 0c2.7 6.9 2.3 16.6-.8 22.7-1.3 2.7-2.8 4.8-3.4 4.8-1.7 0-4.4-5.7-5.6-11.5-1.3-6.4 0-14.4 3.2-19.7 2.4-4 3.9-3.2 6.6 3.7zM94 114.4c0 1.8-.5 2.3-2.5 2.3s-2.5-.5-2.5-2.3c0-1.9.5-2.4 2.5-2.4s2.5.5 2.5 2.4zm46 0c0 1.8-.5 2.3-2.5 2.3s-2.5-.5-2.5-2.3c0-1.9.5-2.4 2.5-2.4s2.5.5 2.5 2.4zm46 .1c0 2-.5 2.5-2.5 2.5s-2.5-.5-2.5-2.5.5-2.5 2.5-2.5 2.5.5 2.5 2.5z"></path></svg>