<svg xmlns="http://www.w3.org/2000/svg" xmlns:v="https://vecta.io/nano" width="300" height="300" viewBox="0 0 225 225" preserveAspectRatio="xMidYMid meet"><path d="M103 57.6C79.4 63.8 61.7 85.4 60.8 109l-.3 6.9-4.3.3c-4.1.3-4.4.5-7.7 6.5L45 129h8.8l8.7.1 3.9 8.2c9.1 19.2 29.2 31.7 51.1 31.7 31.5 0 56.5-25 56.5-56.3 0-5.1-.7-11.7-1.5-14.7-5.1-19.3-21.4-35.3-41.1-40.4-7.6-2-21-2-28.4 0zm29 3.4c10.5 3.5 15.1 6.2 22.4 13.4 11.9 11.8 16.5 22.9 16.2 39.2-.1 7.6-.7 11.4-2.5 16.4-4.5 12.4-14.2 23.6-25.5 29.6-12.8 6.7-30.8 8.2-42.1 3.5-15.1-6.3-23.7-13.6-30.9-26.5-2.7-4.7-5.3-8.9-5.9-9.4-.7-.5-3.4-1.2-6-1.5-2.6-.2-5-.7-5.3-1-1.2-1.2 1.9-4.8 4.7-5.4 4-.8 6.9-4.7 6.9-9.4 0-6.8 3-17.1 7-24 4.1-7 14.7-17.5 20.4-20.2 6.1-2.9 12.8-5.4 16.6-6.1 4.1-.8 20.2.2 24 1.4zm-20 4.3c-.3.3-2.1.7-4 .9-11.7 1.5-25.1 11.1-31.8 22.9-6 10.6-7.7 23.5-3.6 28 1.5 1.7 3.1 1.9 14 1.9 11.7 0 12.4-.1 15.3-2.5 1.6-1.4 3.6-3.8 4.4-5.3 6.8-13 12.5-22.5 15.4-25.5 1.8-1.9 6.3-2.3 6.3-.6 0 1-4.3 9.2-6 11.4-.8 1.1-4 6.7-11.3 20-2.7 4.9-5.7 10.1-6.6 11.5s-2.3 3.8-3.1 5.5c-2 4.1-5.1 7-7.7 7.2-2.6.3-3.6-2.6-1.7-5.2 1.7-2.3 1.8-6.7.2-8.3s-14-1.6-15.6 0c-1.8 1.8-1.4 5.7 1 9.6s5.4 7.2 6.6 7.2c.4.1 1.9 1.9 3.4 4 1.5 2.2 3.5 4 4.3 4s1.5.3 1.5.8c0 1 10.2 4.8 16.8 6.3 4.9 1 9 .9 18.2-.7 7.5-1.2 17.3-6.8 23.7-13.4 11.1-11.4 15.8-29.3 11.7-43.8-3.7-13.1-7.4-12.2-16.8 4.2-3.1 5.3-5.6 10-5.6 10.3 0 .4-.6 1.4-1.4 2.2-1.4 1.6-3.9 5.9-8.2 14.2-2.8 5.3-5 7.6-7.9 8.1-2.1.3-2.2-.2-1.2-7 .3-2.5-.1-3.7-1.9-5.5-4.5-4.2-1.7-9.1 4.8-8.1 2.9.5 3.9.2 5.7-1.7 2-2.2 11.1-16.4 11.1-17.4 0-.2 2-3.8 4.5-7.8 6.1-10.1 6-12.5-.6-17.7-8-6.3-14.6-8.8-25.9-9.7-4.1-.3-7.7-.3-8 0zm20.3 5.7c6.7 2.5 16.2 9.1 16.1 11.1-.1.8-4.7 9.3-10.4 18.8-7.4 12.5-10.5 17-11.3 16.2-.6-.6-2.8-1.1-4.8-1.1-3.5 0-3.9.3-7.2 6.2l-3.6 6.3 4.2.5c5.4.6 5.7 2.4 1.8 8.8-1.7 2.7-3.1 5.2-3.1 5.6 0 .3 3.3.6 7.3.6l7.2-.1 13.2-23.2 13.9-25c1-2.8 2.2-2 3.8 3 5.2 16 1.1 32.8-10.9 44.8-15.8 15.8-42.8 17-59.4 2.8l-3.4-2.9 6.4.4 6.5.4 18.1-31.6 18-31.6h-7.6-7.6l-10 17.5-10 17.5H86.3 73v-3.4c0-25 22.3-45.9 47.2-44.1 3.7.3 9.2 1.4 12.1 2.5zm-44.2 64.5l-4 6.8-4.1-6.4-4.1-6.4 7.8-.5c4.3-.3 7.9-.5 8.1-.4.1.1-1.5 3.2-3.7 6.9z"></path></svg>