<svg xmlns="http://www.w3.org/2000/svg" xmlns:v="https://vecta.io/nano" width="400" height="533.333" viewBox="0 0 300 400" preserveAspectRatio="xMidYMid meet"><path d="M100 74c0 4 .4 7 1 7s1-3 1-7-.4-7-1-7-1 3-1 7zm20.2-5.8c-1.8 1.8-1.4 6.7.8 9.5 1.1 1.4 2 2 2 1.4 0-.7.6-1.1 1.3-1 .6.1 2-.1 3-.5 2.5-1.2 2.4-8.2-.2-9.6-2.6-1.3-5.4-1.3-6.9.2zm7.8 6.2c0 1.6-3.2 2.6-6 1.9-3.7-1-2.3-3.3 2-3.3 2.7 0 4 .4 4 1.4zm74.9-7c-.9.9.3 16.6 1.2 16.1 1.1-.8 1.2-16.5.1-16.5-.5 0-1.1.2-1.3.4zM56 110.5V151h9.5H75v-36c0-31.5-.2-35.9-1.5-35.4-.8.4-1.5.1-1.5-.5s.7-1.1 1.5-1.1c1.1 0 1.5-1.1 1.5-4v-4h-9.5H56v40.5zm13.8-35.3c.7.9 1 13.4.9 36.3l-.2 35h-5-5l-.3-7c-.2-5.7 0-7.2 1.4-8.2 1-.7 1.3-1.3.8-1.3-1.2 0-5.8-6-5.1-6.6.3-.3 2.1.9 4.1 2.6l3.5 3.1-1.5-3c-.8-1.7-1.9-3.3-2.5-3.6-1.7-1.1-1-10.5.9-13.3 3.6-5.2 3.6-5.7-.2-2.4-4.7 4.1-5.8 3.5-2.2-1.2 1.5-2 2.2-3.7 1.6-4.1-1.1-.7-1.4-25.7-.3-26.8 1.1-1.2 8-.8 9.1.5zm99 .3c-.2 3.9.1 5.5 1 5.5.6 0 1.2.5 1.2 1.1s-.6.9-1.4.6c-1-.4-1.5 1.1-2 6.1l-1.2 8.7c-.5 1.9 0 2 7.3 1.8l7.8-.1 3.1-12.4 3.8-14.6c.7-2.2.7-2.2-9.2-2.2h-10l-.4 5.5zm13.8-.1c.3.8-.5 5.4-1.8 10.2l-2.3 8.9H175c-3.2 0-3.5-.2-3.4-3 .3-7.1 1.8-16.1 2.8-16.7 1.9-1.3 7.6-.9 8.2.6z"></path><path d="M81.8 79.2c-.9 2.7 12.4 9.2 23 11.2l6.6 1.2 1.2 5.9c.7 3.3 1.6 12.3 1.9 20 .8 19.7 2.1 27.2 5.2 30.3 2.3 2.3 2.4 2.9 1.8 9.1-.3 3.6-.7 8.6-.7 11.1-.1 3.6-.5 4.6-2.2 5.2-1.2.3.8.6 4.5.7 3.6.1 6.9-.3 7.5-.8.5-.5 2.3-1.1 3.9-1.4 2.7-.4 2.6-.4-.7-.6-2.1 0-3.8.3-3.8.9 0 2.7-2.8.5-4-3-1.3-4-.6-9.1 1.9-12.9 1.7-2.6 3.9-.4 4.6 4.6.9 6.6 1.2 7.3 3.1 7.3 1.2 0 1.5-.6 1.1-2.7-.3-1.6.1-4.4.9-6.2 1.6-3.9 1.2-6.1-1-6.1-.9 0-2.2-1.4-3.1-3-.9-1.7-2-3-2.5-3-1 0-.8-3 .8-10 1.8-7.7 2.5-21.3 1.3-25.4-.6-2.5-.7-5.5-.1-8.5.5-2.5 1.1-6.3 1.5-8.4.6-3.5.8-3.7 4.3-3.7 6.2 0 15-2.6 20.3-5.9 2.8-1.7 5.8-3.1 6.7-3.1 1.1 0 1.3-.3.6-1-1.3-1.3-4.4-.3-4.4 1.4 0 .8-.2.8-.8-.1-1-1.6-6.2-.4-6.2 1.4 0 1.3-.3 1.3-1.5.3s-1.6-.9-2.1.4c-.3.9-1.3 1.6-2.1 1.6s-1.1-.5-.7-1.2c.5-.7.3-.8-.6-.3-1.7 1.1-6.2 1.1-7.8.1-.7-.4-1.2-.2-1.2.6s-.5.6-1.1-.5c-.5-.9-1.6-1.7-2.3-1.7-.8 0-1.9-.6-2.5-1.4-1.4-1.7-5.6-1.6-5.6.2 0 1.9-2.6 3.2-4.6 2.2-.9-.5-1.9-.7-2.2-.4s-.4-.2-.3-1.2c0-.9-.5-1.9-1.3-2.2-1-.3-1.2 0-.8 1.1s0 1.3-1.4 1c-1-.3-1.9-1-1.9-1.6 0-.5-.8-.3-1.8.6-1 1-2.2 1.4-2.5 1-.4-.3-.7-.1-.7.5s-1.9 1-5 .8c-2.7-.1-5.1.2-5.3.7-.2.6-3.2-.4-6.7-2-8.6-4.1-10.7-4.7-11.2-3.1zm37.2 6.2c-.1.5.4 1.3 1.2 1.7.9.6.6.9-1.2 1l-2.5.1 2.5.8c2.4.8 2.3.8-.8.9-3 .1-3.2-.1-2.2-1.9.6-1.1.8-2.5.4-3.1-.4-.7 0-1 1-.7 1 .1 1.6.7 1.6 1.2zm13 10c0 1.6-6.5 2.5-10.4 1.5-1.4-.4-2.6-.4-2.6.1 0 .4-.9.6-2 .3-4.5-1.2-1.5-2.4 5.5-2.2 4.2.1 7.8-.1 8.2-.5 1-.9 1.3-.7 1.3.8zm-9.9 7.3l.1 2.8.7-2.5c.5-1.8 1.4-2.5 3.4-2.6 1.6-.1 2.7.4 2.7 1.2s-.4 1.4-1 1.4c-.5 0-1 .7-1 1.6 0 .8-.4 1.2-1 .9-1.5-.9-1.2 2.1.3 3.4.8.6 1.6.9 1.8.6.3-.2 1 .5 1.7 1.5 1 1.7 1 2-.4 2s-1.4.1 0 1.6c2.1 2 2 3.3-.1 5.1-1 .8-1.2 1.2-.5.8.6-.3 1.2-.1 1.2.4 0 .6-.4 1.1-1 1.1s-1 3.2-1 7.5c0 7.1-1.3 10.2-2.3 5.2-.3-1.4-.5-1-.6 1.3 0 1.9.5 4.6 1.2 6 1.7 3.4 1.5 5.4-.5 5.8-2.3.4-5.4-6.6-6.2-14.2-.4-3.2-.9-6.3-1.2-6.7-.3-.5 0-.9.7-.9.9 0 .9-.3 0-1.4-.8-1-.9-1.6-.1-2.1.6-.3.8-1.1.4-1.6-.3-.6-.8-3.2-1-6-.4-4.1-.1-4.9 1.3-5 1.5 0 1.4-.2-.3-.9-3.1-1.2-3.9-3-1.4-3 1.2 0 1.8.4 1.5 1-.3.5-.1 1 .4 1 1.7 0 1.3-2-.5-2.7-1.3-.5-1.3-.7-.2-1.4 1-.7.9-.9-.4-.9-1 0-1.8-.7-1.8-1.5 0-.9.9-1.5 2.5-1.5 2 0 2.5.5 2.6 2.7zm.7 8.5c.3 2.9 1.1 6.6 1.9 8.3l1.4 3-.6-3.5-1.1-8.3c-.9-6.4-2.2-6-1.6.5zM211 89.6c-12.5 2.4-20 9.2-20 17.9 0 9.8 5.2 14.1 22.5 18.5 14.9 3.7 18.5 7 13.5 12-1.5 1.5-3.3 2-7.4 2-6 0-10.2-2.5-10.8-6.3-.3-2.1-.8-2.2-9.5-2.5-9.1-.3-9.3-.2-9.3 2 .1 4.3 3.8 10.6 8 13.7 5.5 4 12.7 5.5 23.8 4.9 16-.7 25.1-7.6 25.2-18.9 0-8.7-6.1-14.3-19.5-17.5-12.4-3-17.4-5.2-18.1-8.1-1-3.8 2.5-6.3 8.5-6.3 5.6 0 8.7 1.9 9.6 6l.7 3h9 9l-.7-3.8c-1.8-10.1-10.2-15.9-24.1-16.7-4.4-.2-9-.1-10.4.1zm14 4.5c8.5 1.3 14.2 4.9 13.8 8.7-.2 2.2-.9 2.8-3.4 3s-3.7-.3-5.4-2.5c-3.5-4.5-7.1-6.3-12.3-6.3-5.5 0-9.1 2-11.2 6.1-3 5.8 2.3 11.6 13.2 14.4 16.1 4.1 20.3 6.1 20.3 9.7 0 1.7.2 1.8 1.5.8.9-.7 1.9-1 2.3-.6s0 1.3-.9 1.9c-1.2.9-1.3 1.6-.6 2.8 1.5 2.4 0 6.9-3.5 10-7.7 7.3-29.7 8-38.6 1.2-3.8-2.8-5.6-6.4-3.8-7.5 2.8-1.9 6.7-.7 11.6 3.7 4.8 4.3 5.4 4.5 11 4.5 5.2 0 6.4-.4 9.5-3.1 4.6-4.1 4.8-8.7.6-12.9-2.7-2.8-4.8-3.5-20.2-7.5-3.9-1-8.1-2.8-10-4.5-3-2.5-3.4-3.3-3.4-7.6 0-9.4 5.8-13.4 22-15.3.6 0 3.9.4 7.5 1zM41.7 109.2c3.4 3.4 6.6 5.9 7 5.5.9-1-9.7-11.7-11.7-11.7-.8 0 1.2 2.7 4.7 6.2zm97.3-5.4c0 1.4 10.9 11.6 11.7 10.9.4-.4-1.8-3.2-4.7-6.2-5.2-5.2-7-6.5-7-4.7zm19.5 5.2c-3.3 3.4-5.3 6-4.4 6 1.4 0 11.9-9.9 11.9-11.3 0-1.7-1.9-.3-7.5 5.3zm102.5-.5c-2.9 3-5.1 5.8-4.7 6.2.8.7 11.7-9.5 11.7-10.9 0-1.8-1.8-.5-7 4.7zm-12 3.5c1.2 1.6 2.9 3 3.8 3 1.2 0 .9-.8-1.3-3-1.6-1.7-3.3-3-3.8-3-.4 0 .1 1.3 1.3 3zM41.8 122.8c-3.4 3.4-5.8 6.5-5.4 6.9s3.4-2.1 6.8-5.5 5.9-6.4 5.5-6.8-3.5 2-6.9 5.4zm102.7.2c-3.2 3.2-5.6 6.3-5.2 6.7 1 .9 12.1-10.1 11.6-11.6-.2-.6-3.1 1.6-6.4 4.9zm9.2-5.3c-.8 1.2 11 12.9 12 12 .4-.4-2-3.5-5.4-6.8-3.3-3.4-6.3-5.7-6.6-5.2zm95.8 2.3c-1.5 1.5-2.6 3.3-2.3 4 .2.6 1.8-.5 3.7-2.3 1.8-1.9 2.9-3.7 2.3-4.1-.5-.3-2.1.8-3.7 2.4zm6.5-2.3c0 1.8 10.8 12.8 11.7 12 .4-.4-2.1-3.6-5.5-7s-6.2-5.6-6.2-5zm-156 39.8c0 5 .4 8.5 1 8.5s1-3.5 1-8.5-.4-8.5-1-8.5-1 3.5-1 8.5zm103.1 1.3c-.1 4.6.3 7.1.9 6.7 1.2-.7 1.2-9.2 0-12-.6-1.4-.9.3-.9 5.3z"></path><use href="#B"></use><path d="M83 168c0 .6 3.3 1 7.9 1 4.4 0 8.3-.5 8.6-1 .4-.6-2.5-1-7.9-1-5.1 0-8.6.4-8.6 1z"></path><use href="#C"></use><path d="M185.5 168c.3.5 3.9 1 8 1s7.7-.5 8-1c.4-.6-2.5-1-8-1s-8.4.4-8 1z"></path><use href="#B" x="205"></use><path d="M287.5 168c.3.5 3.3 1 6.6 1s5.9-.4 5.9-1-2.9-1-6.6-1c-4.1 0-6.3.4-5.9 1zm-186.8 1.7c-1.1 1-.8 7.1.3 7.8.6.4 1-1.2 1-3.9 0-4.7-.2-5.1-1.3-3.9zm102.3 7.7c0 5.1.4 8.6 1 8.6s1-3.3 1-7.9c0-4.4-.4-8.3-1-8.6-.6-.4-1 2.5-1 7.9zm-116.8 4.5c-8 2.8-13.5 8.7-14.3 15.5l-.4 2.9 9.1.1 9.1.1.9-3c1.2-3.9 4.8-5.7 10.4-5.1 5.4.5 8 3.3 8 8.6v3.7l-12.2 1.1c-14.4 1.3-20.8 3.3-24.2 7.3-4.5 5.3-4.7 15.1-.5 21 3.3 4.7 8.9 6.7 19.6 7 8.9.3 9.4.2 12.1-2.4 3.5-3.3 4.8-3.4 7.8-.2 1.3 1.4 3.1 2.5 4.1 2.5s5.3.2 9.6.4l7.7.3v-7.3-7.2l-3 .2-3 .1-.2-16c-.4-17.9-1.6-22.1-7.8-26.5-7.3-5.2-22.7-6.6-32.8-3.1zm11.8 2.5c0 .2.2 1.1.6 1.9.3 1-.4 1.6-2.5 2-1.7.4-4.8 2.2-6.9 4.2-3.2 2.8-4.7 3.5-8.1 3.5-2.6 0-4.1-.5-4.1-1.3 0-1.8 4.8-6.7 7.8-7.9 5.3-2.1 13.2-3.5 13.2-2.4zm18.3 3.8c5.2 3.7 6.1 6.9 6.5 23.8l.4 15.5 3 3.2c4.4 4.6 3.3 6.3-4.1 6.3-4.9 0-6.5-.4-8.8-2.4-2.5-2.1-2.6-2.6-1.5-5 .7-1.5 1.2-5.1 1.2-8 0-4.3-.4-5.7-2.5-7.6-2.2-2.1-3.1-2.2-9.9-1.7-8.2.6-12.5 2.3-15 6.1-2.5 4-2 7.4 1.8 11.2 3.1 3.1 4 3.4 9 3.4 4.1 0 5.6.4 5.6 1.4 0 2-2.3 2.6-10.7 2.6-12.8 0-18.8-4.8-18-14.2.2-2.6 1-5.5 1.8-6.4 2.7-3.3 9.3-5.3 21.4-6.3 11-1 12.2-1.2 14.3-3.6 4.2-4.9 1.7-13.3-5.1-17.1-3.9-2.1-3.9-2.2-1.7-3.7 2.5-1.8 7.7-.7 12.3 2.5zM109 222v7h-8.3c-9.6 0-12.7-1.4-12.7-5.9 0-1.6.7-3.4 1.5-4.1 1.2-1 9.1-2.6 18.8-3.9.4-.1.7 3 .7 6.9zm48.3-40.2c-10.4 3.7-17 11.3-19.3 22.1-3.4 16 4.9 31.8 19.3 36.8 7.6 2.6 19.7 2.4 26.1-.5 9.2-4.2 15.2-10.6 17.1-18.5l.7-2.7h-9.5-9.5l-1.2 2.9c-1.8 4.5-4.5 6.3-9.8 6.9-9.6.9-15.2-5.6-15.2-17.4 0-11.7 6.9-19.4 16-17.9 3.9.7 10 6 10 8.8 0 .9 2.7 1.2 9.5 1.2 5.7 0 9.5-.4 9.5-1-.1-2.4-4.4-10.3-7.3-13.3-5.7-6-12-8.5-22.2-8.9-6.9-.3-10.2.1-14.2 1.5zm23.3 4c5.7 2 11.5 6.4 13.3 10 1.6 3.2 1.6 3.2-3.6 3.2-4.3 0-5.2-.4-8.7-4-7-7.2-16.8-7.5-23.5-.6-3.3 3.4-6.1 10.2-6.1 14.7 0 3.8-1.2 3.7-5.5-.6-4.5-4.6-4.6-7.9-.2-13.7 7.3-9.5 21.7-13.3 34.3-9zm-33.9 25.4c5.4 5.4 6.3 6.8 4 6.8-1.2 0-7.5-6.1-10.6-10.3-1.1-1.4-1.1-1.7 0-1.7.7 0 3.7 2.3 6.6 5.2zm-.2 5.8c.9 1.5-.4 5-2 5-1.5 0-2.5-2.2-2.5-5.6 0-2.1.3-2.3 1.9-1.4 1.1.5 2.3 1.5 2.6 2zm5.5 3.6c0 .8-7.2 7.4-8.1 7.4-1.6 0-.9-1.4 2.3-4.7 2.8-2.9 5.8-4.3 5.8-2.7zm42.3 3c1.1 1.1-2.2 6.2-5.6 8.8-5.4 4.1-10.6 5.8-18.2 5.9-7.8 0-13.2-1.4-18.7-5.1-4.2-2.8-4.8-5-1.8-7.7 1.9-1.8 2.1-1.7 7.4 3.3l5.4 5.1 5.8-.6c7.2-.7 9.9-2 14.2-6.7 2.6-2.9 4-3.6 7.1-3.6 2.1 0 4 .3 4.4.6zm30.9-41.7c-12.6 4.3-20.2 15.5-20.2 29.6 0 12.6 5.9 22.4 16.7 27.7 5.9 2.9 7.7 3.3 14.8 3.3 11.1 0 17.5-2.4 24-8.9 2.8-2.8 5.6-6.6 6.3-8.4l1.1-3.2H258c-9.1 0-9.9.2-10.5 2.1-.9 2.6-6.2 5.9-9.8 5.9-7.7 0-12.7-5.4-14.2-15.3-.7-4.3-.6-4.7 1.3-4.7 1.1 0 2.9 1.1 4 2.5l2 2.5h19.7 19.7l-.7-5.3c-1.1-8.3-2.3-12-5.5-16.9-3.4-5.1-10.3-10-16.5-11.7-6-1.6-16.3-1.3-22.3.8zm26.9 5.8c5.7 3 10.5 8.8 11.5 13.9 1.1 5.8-8.4 12.2-12.3 8.3-.9-.9-.6-1.9.9-4 5-6.7-4.4-17.9-15-17.9-8.7 0-15.4 6.5-15.9 15.4a357.71 357.71 0 0 1-.9 10.3c-.5 4.2-.1 6.2 1.6 9.8 3.3 6.8 7.9 9.8 15.4 10.3 6.1.4 6.4.3 11-3.7 5-4.4 7.6-5 9.6-2.6 1.8 2.2-1.6 5.7-8.3 8.6-8 3.4-19 3.1-26.5-.7-10.1-5.2-14.8-14.1-14-26.4.8-11.2 7-19.6 17-23.2 7.8-2.8 18.8-2 25.9 1.9zm-8.1 5.8c2.8 1.5 5 4.5 6.4 9 .6 1.9.1 2-12.9 2-7.4 0-13.5-.4-13.5-.8 0-2.3 4.4-8.8 6.8-10.1 3.5-2 9.5-2 13.2-.1zm3.5 16.5c2.1 2.2 3.4 4 2.7 4-1.4 0-8.2-5.9-8.2-7.1 0-1.8 1.7-.8 5.5 3.1zm19-1.6c-1.8 2.8-6.4 6-7.2 5.2-.7-.7 6.2-7.6 7.6-7.6.7 0 .5.9-.4 2.4zm-26 1.6c.4.6-1 1-3.4 1-2.2 0-4.3-.5-4.6-1-.4-.6 1-1 3.4-1 2.2 0 4.3.4 4.6 1zm21.6 14.9c1.3 1.1 2 2.3 1.6 2.7s-2-.4-3.5-1.9c-3-3.1-1.6-3.7 1.9-.8zM38.3 182c-1.2.5-2.6 1.7-3.2 2.8S34 197.6 34 214l-.2 27.3 9.1.1 9.1.1v-23.2V195h7.5H67v-7-7l-13.2.1c-7.3 0-14.3.4-15.5.9zm24.2 5c1 3-.2 4-4.9 4-7.2 0-8.9 2.2-9.6 12.1l-.5 8.4-4.7-4.4-4.8-4.4v-7.3c0-9.7 1-10.4 14.2-10.4 8.8 0 9.7.2 10.3 2zm-18.9 23.7c5.2 5.4 6.3 7.3 4.6 7.3-1.4 0-12.3-11.6-11.6-12.3 1.2-1.1 1.4-1 7 5zm-2.5 3.5c4.1 3.5 4.4 4.7 1.4 7.8-1.6 1.7-3.2 3-3.7 3-.4 0-.8-2.7-.8-6 0-6.2.5-6.9 3.1-4.8zm7.9 6.6c0 1.4-11.8 12.4-12.3 11.5-.7-1.2 9.3-12.3 11-12.3.7 0 1.3.4 1.3.8zM48 232v5h-4.4c-2.5 0-4.8-.4-5.1-1-.6-.9 7.2-9 8.8-9 .4 0 .7 2.2.7 5zm10-22.4c-5.6 6-4.2 7.1 1.6 1.2 2.6-2.5 4.2-4.8 3.6-5.2-.5-.3-2.9 1.5-5.2 4zm103.1-1.1c-4.5 5.1-3.8 6.6.9 2 2.2-2.1 4-4.3 4-4.7 0-1.7-1.9-.6-4.9 2.7zM55 223.8c0 1.9 6.5 8.5 7.9 8.1.7-.3-.8-2.3-3.4-4.9-2.5-2.4-4.5-3.9-4.5-3.2zm45.7 27.9c-1.1 1.1-.8 16.3.3 16.3.6 0 1-3.5 1-8.5 0-8.5-.1-9.1-1.3-7.8zm102.3 8c0 6 .3 8.3 1 7.3 1.3-2 1.3-14.7 0-15.5-.6-.4-1 2.6-1 8.2zm37 31.8V332h9.5 9.5v-12.8-12.8l4 .1 4 .1 6.2 12.7 6.2 12.7h10.3c5.7 0 10.3-.2 10.3-.4s-4.1-7.5-9-16.1l-9-15.8 8.7-13.5 9.1-14.4c.2-.4-4.3-.8-10-.8h-10.3l-6.4 11c-6.4 11-6.4 11-10.2 11H259v-21-21h-9.5-9.5v40.5zm15.1-17l.7 19.2c.1.1 1.6 1 3.3 1.8 6.2 3.3 10.5.3 17.8-12.1 4-6.9 4.4-7.2 8.8-7.9 6.7-1 7.2.3 2.6 7.2-6.4 9.4-9.3 14.8-9.3 17.3 0 1.2 3 7.6 6.6 14.1s6.3 12.3 5.9 12.9c-.8 1.3-6.1 1.3-8.5 0-1.1-.6-4.2-5.5-7-10.9-5.9-11.4-7.6-13.3-12.4-13.4-5-.1-8.6 3.4-8.6 8.5 0 2.1-.5 3.8-1.1 3.8s-3.1-2.1-5.5-4.8l-4.4-4.7v-24.6c0-13.5.3-24.9.7-25.3s2.8-.6 5.3-.4l4.5.3.6 19zm-6.4 38.7c5.5 5.4 6.3 6.8 3.9 6.8-1.5 0-10.6-9.6-10.6-11.1 0-1.8 1.5-.8 6.7 4.3zm-.2 5.8c1.7 1.9 1.7 2.1 0 4-2.9 3.2-4.5 2.5-4.5-2s1.6-5.2 4.5-2zm5.5 3.7c0 1.4-6.4 7.3-7.9 7.3-.9 0 0-1.5 2.4-4 3.7-3.8 5.5-4.9 5.5-3.3zM98 269.8c0 .8-2.9 1.2-9.3 1.2h-9.2l-2.8 18.2-3.4 23.5c-.4 4.2-1 5.3-2.3 5.3-1.4 0-1.9-1.2-2.5-5.8-.4-3.1-2-13.4-3.6-22.7L62 271.7c0-.4-5.8-.7-12.9-.7H36.2l-1.1 6.2-3.8 23.5c-2.3 14.2-3 17.3-4.4 17.3-1.2 0-1.8-1.3-2.2-5.8-.3-3.1-1.8-13.7-3.4-23.4L18.5 271H9.2c-8.4 0-9.3.2-8.8 1.7.3 1 1.6 7 3 13.3l6.2 28.7 3.8 17.3h13.3c7.3 0 13.3-.1 13.3-.3 0-.1 1.3-7.6 2.9-16.7s3.2-19.5 3.6-23.3c.6-5.2 1.1-6.7 2.4-6.7s2 2.7 3.9 14.8l3.8 23.4 1.7 8.8h13.1 13.2l6.3-28.8 7.3-31.1c.5-1.3.6-2.6.3-2.9s-.5 0-.5.6zm-83.1 6.9c.5 1 2.2 10.3 3.7 20.7C21.6 317 23 321 27 321c2.3 0 6-4.6 6-7.4 0-1.2.6-2.8 1.2-3.4.7-.7 1.1-2.7 1-4.5-.3-3.2 3.4-27.2 4.4-28.9.7-1.1 18.1-1 18.8.1.3.5 1.6 7 2.8 14.5 2 12 2 13.8.8 14.6-3.9 2.5-4.4 1.4-6-10.2-1.2-8.8-3.3-13.1-6.7-13.6-3.6-.5-5.9 3.8-7.2 13.7-.9 6.3-1.8 9.4-2.9 10-1.3.8-1.3 1.2.6 3.6 3 3.8 2.8 5.1-.5 2.6-2.9-2.3-4.3-2.1-2.3.4 1.9 2.3.8 12.4-1.5 14.1-2.4 1.8-15.5 1.9-17.8.1-1.2-.8-3.3-8.6-7.1-25.6-3-13.5-5.3-24.9-5-25.3 1-1.6 8.3-.9 9.3.9zm76.8 0c1 2.6-9.5 48.6-11.4 50-2.3 1.7-15.4 1.7-17.7 0-2.8-2.1-3.3-9.6-.8-12.7l2-2.5 1.2 3c1.5 4 3.9 6.5 6.1 6.5 3.9 0 5.4-4.1 8.3-23.6 1.5-10.4 3.2-19.7 3.7-20.7 1.3-2.3 7.7-2.4 8.6 0zM61 312c-4.3 3.5-5.3 2-1.4-2.1 2-2.1 3.1-2.6 3.8-1.8.8.7.1 1.9-2.4 3.9z"></path><use href="#C" y="102"></use><path d="M216 270c2 1.3 6 1.3 6 0 0-.6-1.7-1-3.7-1-2.8 0-3.4.3-2.3 1zm-94.6 1.6c-7.7 2.4-14.3 7.9-17.9 14.9-2.7 5.2-3 6.8-3 14.9 0 7.1.5 10.1 2.1 13.7 3.1 6.6 7.8 11.4 14.2 14.6 5 2.5 6.8 2.8 15.2 2.8 11 0 16.9-2.1 23.3-8.3 3.3-3.1 7.7-9.8 7.7-11.7 0-.3-4.3-.5-9.6-.5-8.7 0-9.7-.2-11.4-2.3-1-1.2-2.2-1.8-2.7-1.3-.4.4.2 1.5 1.5 2.3 3 2.1 2.8 3.6-.9 6.7-2.2 1.9-4.2 2.6-7.2 2.6-8 0-12.7-5.1-14.2-15.3-.6-4-.5-4.7 1-4.7.9 0 2.8 1.4 4.2 3l2.5 3 19.2-.2 19.1-.3-.3-5.5c-.7-12.5-7.2-22.6-17.4-27-6.8-2.9-18.4-3.6-25.4-1.4zm23.9 5.2c4.6 2.1 10.1 7.1 12.3 11.5.8 1.5 1.8 5 2.1 7.8l.6 4.9h-16.1c-9.6 0-16.3-.4-16.7-1s2.5-1 8-1c7.9 0 8.8-.2 11.1-2.6 2-1.9 2.4-3.1 1.9-5.2-1.8-7.3-9.1-13.2-16.4-13.2-8.3 0-17 9.2-15.6 16.6.4 2.2.2 4.1-.6 5-2 2.4-.6 11.7 2.5 16.4 5.5 8.3 14 10.3 22.4 5.4 2.9-1.7 4.7-2.3 5.4-1.6 1.7 1.7-.8 4.8-5.8 7.2-3.7 1.8-5.7 2.2-10.3 1.7-10.6-.9-19-6-23.4-14.2-3.1-5.7-3.1-20.2 0-26 3.6-6.8 9.7-11.4 18-13.5 5.3-1.3 15.6-.4 20.6 1.8zm-4.6 8.3c2.2 2 5.3 7.6 5.3 9.4 0 .3-6.1.5-13.6.5-12 0-13.5-.2-13-1.6.3-.9.6-1.9.6-2.4 0-1.4 5.2-7.1 7.4-8.1 3.6-1.5 10.5-.4 13.3 2.2zm8.8 31.9c1.7 1.8 2.3 3 1.5 3-1.5 0-6-3.9-6-5.2 0-1.6 1.7-.8 4.5 2.2zm7.8.4c-1.8 2.5-4.3 3.5-4.3 1.7 0-1 5.3-5.2 5.8-4.6.2.2-.4 1.5-1.5 2.9zm-6.3 5.9c0 1.2-2.9 3.8-7 6.2-.8.5 0-1 1.8-3.3 3.4-4.3 5.2-5.3 5.2-2.9zm41.7-52.3c-13.2 3.4-21.9 13.6-23.3 27.7-.8 7.4 1.3 15.1 5.8 21.9 8.9 13.2 31.9 16.3 46.5 6.3 3.7-2.6 10.3-11.6 10.3-14.2 0-.4-4.1-.7-9-.7h-9.1l-3.8 4c-3.2 3.4-4.4 4-7.9 4-8.3 0-12.8-4.6-14.1-14.5-.7-4.7-.5-5.5.9-5.5.9 0 2.9 1.3 4.5 3l2.9 3h18.9 19l-.6-6.5c-1.2-12.4-6.5-20.8-16.1-25.5-7-3.5-17.8-4.8-24.9-3zm12.3 5.5c0 3.7-1.4 5.4-2.4 2.9-.8-2.1-.8-5.9 0-6.7 1.3-1.3 2.4.5 2.4 3.8zm-5-.1c0 .8-1.5 2-3.4 2.6-6.7 2.2-13.6 12.9-10.7 16.4.8.9.7 1.8-.4 3.2-2.9 3.9-1.4 13 3.2 19.1 6.1 8 18.2 8.4 25.4.7 1.6-1.7 3.3-2.4 6-2.4 2.1 0 4 .4 4.3.9 1.1 1.7-3.5 6-9.2 8.8-4.8 2.3-7 2.8-13.7 2.8-13.8 0-23.3-6.4-27-18.2-5.2-16.6 6.2-35.1 21.8-35.3 2.5 0 3.7.4 3.7 1.4zm14.3.2c8.9 4.5 14.7 12.6 14.7 20.6v3.8h-16c-10 0-16-.4-16-1s3.4-1 8.3-1c7.6 0 8.6-.2 10.6-2.4 3.6-3.8 2.2-8.6-4-14.6-2.7-2.6-4.9-5.2-4.9-5.9 0-1.6 3.6-1.4 7.3.5zm-6.3 6.9c2.7 1.4 7 7.9 7 10.5 0 .6-4.8 1-13.5 1-7.4 0-13.5-.2-13.5-.5s.9-2.4 2-4.6c3.6-7.1 11.4-9.8 18-6.4zm-108-4.4c0 4.4.4 6.8 1 6.4.6-.3 1-3.5 1-7.1s-.4-6.4-1-6.4-1 3-1 7.1zm162.6 33.1c-.9 1.2-1.3 2.4-1.1 2.7.6.5 4.5-2.9 4.5-4.1 0-1.5-1.9-.8-3.4 1.4zM45.1 324.9c-3 4.2-2.6 4.9.9 1.6 3-2.9 3.8-4.5 2.1-4.5-.5 0-1.9 1.3-3 2.9zm111.9 1.8c0 1.4 5.4 6.3 6.9 6.3 1 0 .3-1.2-1.9-3.5-3.2-3.3-5-4.3-5-2.8zm104 1.1c0 1.3 4.4 5.2 5.9 5.2.7 0 1-.4.6-1-1-1.6-6.5-5.2-6.5-4.2z"></path><defs><path id="B" d="M.5 168c.3.5 4.2 1 8.6 1 4.6 0 7.9-.4 7.9-1s-3.5-1-8.6-1c-5.4 0-8.3.4-7.9 1z"></path><path id="C" d="M103 168c0 1.3 13 1.3 15 0 1-.7-1.1-1-6.7-1-4.9 0-8.3.4-8.3 1z"></path></defs></svg>